<svg xmlns="http://www.w3.org/2000/svg" width="175" height="186" viewBox="0 0 174.9 185.9">
      <path d="M0,172.91c.33-.27,1-.53,1-.79,0-5.64,2.51-10.61,4.18-15.78,1-2.94,2.46-5.69,2.86-8.81a3.61,3.61,0,0,1,.29-1.37c2.9-5,4.11-10.66,6.78-15.67,2.94-5.49,6.37-10.74,9.84-15.92,4.78-7.13,9.94-14,15.4-20.65,1.85-2.27,3.8-4.41,5.77-6.56,1-1.1,2.39-2,3.09-3.23s2.29-1.86,2.78-3.25,2.75-1,2.48-2.88c2.43-1.11,3.86-3.53,6-4.81a22.06,22.06,0,0,0,3.74-3,87.82,87.82,0,0,1,9.39-7.46c2.64-1.86,4.88-4.26,7.41-6.29a167.85,167.85,0,0,1,21.16-14.07c.77-.45,1.74-2.1,3.07-.63A9.9,9.9,0,0,1,106.74,40c.93-.67,2.5-1.88,2.93-1.59,2.21,1.49.62-2.25,2.43-1.57.91.34,2.35-.54,3.47-1s1.8-1.27,2.79-1.71,2.39-.67,3.52-1.14,2.38-1.82,3.25-1.59c2.45.66,3.82-2.51,6.2-1.42.08,0,.55-.41.57-.65A2.18,2.18,0,0,1,134,27c.75-.05,1.11-1.66,2.35-.35.55.59.28-1.6,1.88-1.84,3.37-.53,6.08-3.18,9.71-3.51,1.16-.1,3.41.1,3.42-2.29,1.05.87,1.63-1.87,2.79-.37.07.09.66-.07.66-.1,0-.46,0-1.2-.18-1.31A13.71,13.71,0,0,0,151.15,16c-2.67-.45-5.39-.66-8.07-1.05a41.81,41.81,0,0,1-6.5-1.24,25.67,25.67,0,0,0-5.17-.74c-1.44-.17-3.43.3-4.23-.49-1.39-1.38-2.19.58-3.25,0-.49-.26-1.37-.54-1.65-.31-1.49,1.29-2.91,1.06-4.46.19A3.24,3.24,0,0,0,116,12a5.62,5.62,0,0,1-6-3.45c-.35-.69-1.08-1.94-1-2,1.36-.89-.31-2.65,1.38-3.76,1.49-1,3.71-.89,4.56-2.83h15c.11.28.19.78.35.81,2.79.52,5.68-.17,8.47,1.1,1.51.68,3.46.37,5.19.63s3.34.74,5,1c1.47.22,2.79,2,4.43.48,4.14,2.8,9.21,2.52,13.64,4.14,3.42,1.25,7.31,3.06,6.91,8.07,0,.23.62.51,1,.77v5c-3.37,3.48-5.37,7.9-7.93,11.92a79.55,79.55,0,0,0-6.26,11.87c-2,4.82-4.06,9.64-6,14.52-1.25,3.23-3,6.19-2.89,9.8,0,.28-.56.79-.89.8a1.56,1.56,0,0,1-1-.68,4.85,4.85,0,0,1-.53-1.25,7,7,0,0,0-.48,1.3c-.21,1.17-2.56.22-2,2.08l-1,.13c.06-1.91-1.59-2-2.73-2.81-3.12-2.19-3.89-6.75-2.49-10.26,1.82-4.55,4-9,5.23-13.82.22-.87.78-2.27,1.31-2.33,1.84-.22.86-1.42,1.16-2.22,1-2.77,1.31-6,4.45-7.59.42-.21.53-1.08.72-1.66.06-.21,0-.62-.09-.67-.27-.13-.84-.23-.91-.12-1.27,2.14-3.91,1.88-5.69,3.3s-4.23,1.75-6.33,2.7-3.83,2-5.76,3-4.18,2-6.24,3-3.75,2.28-5.77,2.94c-4.86,1.59-9,4.69-14,6.16-1.86.55-3.22,2.59-5,3.45-5.46,2.59-10.06,6.37-14.89,9.89-3.24,2.36-6.28,5-9.41,7.42-4.77,3.76-9.25,7.88-14.22,11.4-2,1.42-3.57,3.47-5.34,5.24-2.59,2.59-5.27,5.09-7.75,7.78-4.11,4.48-7.66,9.43-11.39,14.22a161.85,161.85,0,0,0-9.71,14,121.92,121.92,0,0,0-8,15.63c-2.35,5.35-4.12,10.95-6.2,16.41-.59,1.57-2.14,2.92-.93,4.83-1.15,1.71-1.29,3.8-2.07,5.58s-.72,3.74-.91,5.63c-.1,1.05-.86,2.06-.88,3.09,0,.85.82,1.71.88,2.58.12,1.89-1,3.28-2.31,4.52-1.07-1.73-2.34,1.09-3.47-.16s-1-.1-1.21.63c0,.15-.78.32-.87.21a7.91,7.91,0,0,1-.74-1.38c-.12.62-.26,1.23-.34,1.85a6.68,6.68,0,0,0,0,1H3c0-2.28-1.85-3.42-3-5Z"/>
    </svg>