<svg xmlns="http://www.w3.org/2000/svg" viewBox="0 0 30.38 56.61"><defs><style>.cls-1{fill:#fff;}.cls-2,.cls-4{fill:#7ca52b;}.cls-3{fill:#040507;}.cls-4{fill-rule:evenodd;}</style></defs><g id="Calque_2" data-name="Calque 2"><g id="Calque_1-2" data-name="Calque 1"><g id="Groupe_90" data-name="Groupe 90"><path class="cls-1" d="M6.31,18.51s4.4-7.18,8.12-6.8,10.61,4.91,11.19,12S26.12,52,18,53.56,6.3,51.75,5.73,43.85.78,26.74,6.31,18.51Z"/><path id="Tracé_96" data-name="Tracé 96" class="cls-2" d="M14.55,8.52a1.27,1.27,0,0,1-.41-.45c-.08-.17-.1-1-.16-1.18a22.13,22.13,0,0,1-.26-4.81c0-.84-.08-1.8.14-1.87A4.91,4.91,0,0,1,14.61,0,4.36,4.36,0,0,1,17,.74v.34l.14.43.07.59V5.64l-.1.4v.64c-.12.93-.36,1.93-.52,1.94l-.34,0-.22,0Z"/><path id="Tracé_97" data-name="Tracé 97" class="cls-2" d="M7.39,11.45l-.17.14-1.09.47c-.13.09-.91-.66-1.55-1.41L4.2,10.1l-.3-.3-2-3.09-.29-.55-.13-.45-.2-.3C1.19,5.16,2.37,4,3,3.69c.18-.08.41.4.74.31s.71.83,1.2,1.55A19.75,19.75,0,0,1,7.2,9.45c0,.19.52.93.55,1.12a1.46,1.46,0,0,1-.08.62Z"/><path id="Tracé_98" data-name="Tracé 98" class="cls-2" d="M22.45,11.29a1.2,1.2,0,0,1-.08-.62c0-.19.5-.93.55-1.12a18.93,18.93,0,0,1,2.27-3.89c.49-.73,1-1.62,1.2-1.56s.55-.66.74-.58a5,5,0,0,1,1.76,2l-.2.3-.13.45-.29.56L26.22,9.91l-.3.3-.38.55c-.64.74-1.42,1.5-1.55,1.41l-1.09-.48-.17-.14Z"/><g id="Groupe_83" data-name="Groupe 83"><path id="Tracé_99" data-name="Tracé 99" class="cls-3" d="M22.65,33c.05,0,.19.53.15.2C22.64,32.44,22.6,32.68,22.65,33Z"/><path id="Tracé_100" data-name="Tracé 100" class="cls-3" d="M18.26,17.87c.11.19.21.39.31.59-.14-.33-.3-.65-.45-1Z"/><path id="Tracé_101" data-name="Tracé 101" class="cls-3" d="M21.12,11.81c.43.3.58.41.6.39s-.1-.16-.28-.3S20.78,11.53,21.12,11.81Z"/><path id="Tracé_102" data-name="Tracé 102" class="cls-3" d="M30.27,30.46a36.18,36.18,0,0,0-.48-3.6.77.77,0,0,1,0,.37,30.46,30.46,0,0,0-2.17-7.37,19.12,19.12,0,0,0-3.83-5.73,19.76,19.76,0,0,1,2.74,4.09,49.48,49.48,0,0,1,2,4.55,20.49,20.49,0,0,1,.66,2.89c.37,1.9.56,3.24.7,4.58A27.41,27.41,0,0,1,30,34.77c0,.27,0,.34-.07.35h0a26.07,26.07,0,0,1-.58,5.06,31.7,31.7,0,0,1-1.46,5,10.73,10.73,0,0,1-1,2.11c.26-.55,0-.16.21-.62-.26.6-.24.65-.25.76a1.49,1.49,0,0,1-.09.3c-.08.16-.21.41-.45.82l0-.3a2.53,2.53,0,0,1-.29.65,6.22,6.22,0,0,1-.5.76l-.29.41-.31.41c-.2.29-.42.56-.62.84s-.14.07,0-.17l.33-.46.43-.59c-.36.46-.54.73-.71,1a5.43,5.43,0,0,1-.62.81c.16-.26.31-.51.46-.78a3.43,3.43,0,0,1-.42.58,4.67,4.67,0,0,1-.44.45l-.45.36a18.57,18.57,0,0,0,2.65-3.28l.48-.8a27,27,0,0,0,2.67-6.52c.09-.35.18-.7.26-1.05.16-.66.29-1.34.41-2-.06.46-.13.9-.18,1.27a30.62,30.62,0,0,0,.55-3.58c.08-.5.17-1.25.21-1.32s0,0-.07.06c0-1,.06-2,0-3,0,.6,0,1.2-.06,1.79V34c0-.36,0-.72,0-1.08s0-.8,0-1.19c0-.78-.07-1.56-.15-2.32a33.19,33.19,0,0,0-1.28-6.48c-.21-.67-.44-1.32-.68-2a27.46,27.46,0,0,0-1.23-2.71c-.3-.57-.62-1.11-.95-1.63s-.69-1-1.05-1.49-.74-.91-1.13-1.33a16.58,16.58,0,0,0-1.22-1.15,12.63,12.63,0,0,0-3-1.9c.22.07.44.16.66.25-.18-.09-.36-.16-.54-.23l-.39-.14-.28-.1c-.47-.21-.42-.23-.17-.17l.5.14.47.18c-.25-.1-.45-.19-.61-.24a2.64,2.64,0,0,0-.37-.11c-.18-.05-.22,0-.21,0s0,.06.08.09a9.56,9.56,0,0,0-5.82-.16c.22-.07.45-.15.7-.21a9.14,9.14,0,0,1,1.95-.33,7.71,7.71,0,0,0-1.66.15c-.21.05-.43.09-.68.16l-.41.12a4.83,4.83,0,0,0-.5.16c-.56.17-.94.32-1.31.44a10,10,0,0,0-1.17.5l.5-.18-1.09.73a4.73,4.73,0,0,0-.81.67l-.07-.16a6,6,0,0,1-.73.7c-.28.27-.59.53-.75.69l-.19.39a5.49,5.49,0,0,0-.48.5c-.14.15-.27.28-.38.41a3.58,3.58,0,0,1-.52.51H5a12.46,12.46,0,0,0-1.08,1.6c-.4.66-.69,1.16-.48.59-.13.26-.2.53-.5,1.1l-.14,0c-.37.85-.74,1.81-.89,2A3.39,3.39,0,0,0,2.1,20c-.74,1.82-.68,2.06-.65,2.23s.07.28-.37,1.94L1,24.12c-.05.29-.1.58-.14.87l-.28.86a11.45,11.45,0,0,1-.13,1.3C.41,27.69.31,28.3.23,29A22.4,22.4,0,0,0,0,32.7a30.2,30.2,0,0,0,0,3.43L.17,36A26.62,26.62,0,0,0,.5,39.58c.21,1.46.54,2.89.59,3.49.45,1.11,0-.13.07-.13.4,1.09.61,1.67.75,2.14s.21.81.44,1.37c.64,1.29-.42-1,0-.34a10.4,10.4,0,0,0,.91,1.83c.28.43.57.93,1.3,2.07.1.26-.44-.55-.6-.78a26.29,26.29,0,0,0,2.35,3A14.18,14.18,0,0,0,9.84,55.1a10.16,10.16,0,0,0,2.53,1.1,10,10,0,0,0,3.12.41A10.9,10.9,0,0,0,18.7,56a13.18,13.18,0,0,0,2.79-1.38l0-.07A15.08,15.08,0,0,0,25.29,51c-.19.24-.41.45-.61.68a24.32,24.32,0,0,0,1.72-2.52c.14-.16.29-.32.42-.49a7.21,7.21,0,0,0,.55-1.35,14.89,14.89,0,0,0,.93-2c.29-.75.51-1.44.59-1.69s-.08.46-.1.64c.14-.46.26-.92.36-1.39s.17-.79.38-1.65l0,0c.2-1,.4-2.16.53-3.33s.23-2.39.27-3.62S30.35,31.69,30.27,30.46ZM10.5,22.39l.65-.95c.33-.5.68-1,1-1.6.22-.38.45-.76.66-1.15l.33-.6c.21-.4.41-.8.6-1.21s.37-.82.53-1.22A16.4,16.4,0,0,0,15,13.4c-.08.41-.16.76-.22,1a7.85,7.85,0,0,0,.26-.95l0-.09v0s0,0,0,0l.17.07a1.5,1.5,0,0,1,.32.19,2.77,2.77,0,0,1,.56.52,3.25,3.25,0,0,1,.33.57c.09.19.15.32.12.32l-.2-.29-.18-.26-.2-.24-.18-.17a1.83,1.83,0,0,0-.36-.26l-.19-.1-.1,0,0,.11c0,.14-.05.27-.09.41l-.06.2,0,.1,0,.15c-.12.39-.26.78-.41,1.16-.3.78-.67,1.55-1.07,2.36a9.17,9.17,0,0,1-.9,1.5c.21-.41,0-.13.17-.47-.46.87.12.19-.63,1.39L12,20.34a17.34,17.34,0,0,1-1.43,2.31c-.13.12-.11.05,0-.14s.3-.49.51-.82a15.35,15.35,0,0,0-.85,1.4c.07-.21.15-.42.23-.63a4.94,4.94,0,0,1-.5.86l-.26.35A11.13,11.13,0,0,1,10.5,22.39Zm-.91,1.54c.06,0,.12,0-.17.6-.17.36-.13.16-.19.24a3.18,3.18,0,0,1-.26,1c-.09.09.07-.4,0-.46C9.19,24.8,9.38,24.36,9.59,23.93ZM8.51,26.71c0,.11.14-.25.07.12-.17.52-.23.6-.27.56C8.38,27.16,8.44,26.93,8.51,26.71Zm10.71,28.4a3.13,3.13,0,0,1-.71.24c-.08,0-.1,0-.09,0a6.63,6.63,0,0,0,.87-.36s0,0,0,0,.2,0-.1.12ZM22,53.34c-.43.32-.24.12-.35.18a3.6,3.6,0,0,1-1,.86c-.08,0,0-.07.16-.17a1.07,1.07,0,0,0,.26-.26l.44-.3c.37-.29.73-.6,1.1-.93.06,0,.09.06-.57.62Zm.21-13.44c.17-.62.32-1.32.47-2-.38,1.11-.35,1.23-.75,2.32a11.1,11.1,0,0,1-1,1.67l.25-.3c-.41,1.09-.38.7-.72,1.55l-.13-.11a4,4,0,0,1-.8,1.19c0,.1-.05.2-.09.3a2.88,2.88,0,0,1-1.09.83l.12,0-.47.31a2.71,2.71,0,0,1-.38.22l-.2.11c-.1,0,.35.1.26.14s-.14.09-.21.15a.47.47,0,0,0-.12.19,1.76,1.76,0,0,0-.1.31c0,.14-.08.12,0-.23l0,.27v.24c0,.15,0,.32,0,.57l-.11.07c0,.7,0,1.47,0,1.68a1.91,1.91,0,0,0-.13-.63c0,1.48-.12,1.62,0,1.73a.48.48,0,0,1,.15.28c0,.1-.21.23-.18.41l.08.55-.08,0,.12.36v0s0,0-.07,0l-.11,0L16.63,52a.5.5,0,0,1-.38,0,8.67,8.67,0,0,1-.91-.23,17,17,0,0,1-1.73-.63l.06-.35a1.72,1.72,0,0,1,.07-.21,1.12,1.12,0,0,0,.07-.4V50a1.8,1.8,0,0,1,0-.22q0-.24.12-.54a5.55,5.55,0,0,0,.24-1.52l-.11.08c0-.07,0-.12,0-.24s0-.23,0-.37v-.21s0-.08,0-.11l-.1,0-.42-.26-.33-.2-.3-.21a5.6,5.6,0,0,1-.59-.48,5.6,5.6,0,0,1-1.49-1.92c-.54-.6,0,.08,0,.12a5.23,5.23,0,0,1-.34-.41l-.23-.35a4,4,0,0,1-.28-.54c-.06-.16-.1-.3-.16-.44s-.09-.31-.16-.51c-.46-.87.27.7,0,.26L9.33,41c-.09-.2-.17-.35-.24-.51a6.92,6.92,0,0,1-.51-1.64c0-.2.16.47.25.65a13.11,13.11,0,0,1-.58-2.61,24.27,24.27,0,0,1-.18-3.19,27.19,27.19,0,0,1,.46-4A20.33,20.33,0,0,1,9.75,25.6v-.06L10.48,24a7.3,7.3,0,0,1,.44-.77l.24-.38.3-.41c-.13.16-.3.35-.41.5.43-.75.76-1.15,1.19-1.87l.34-.34c.45-.8.14-.4.43-1a15.64,15.64,0,0,0,.83-1.43c.27-.54.49-1,.58-1.21s-.08.34-.12.47c.43-1,.31-1,.79-2.23h0l.12-.43.07-.22v-.11l0-.16v-.13c0-.08.06,0,.1,0a.29.29,0,0,1,.12.07.69.69,0,0,1,.13.11,3,3,0,0,1,.27.35c.38.62.77,1.24,1.1,1.88.17.33.36.66.51,1s.33.65.47,1,.29.66.43,1,.26.66.38,1a.51.51,0,0,1,0-.27c.63,1.7,1.14,3.6,1.64,5.41s1,3.54,1.51,4.9c-.57-1.9-1.17-5.22-1.89-7.11-.12-.75-.56-1.82-.55-2.14a19.23,19.23,0,0,0-1.25-3.21c-.23-.45-.46-.88-.73-1.35s-.55-1-.9-1.58c-.18-.35,0-.22-.05-.34.4.61.76,1.24,1.11,1.89-.19-.4-.38-.81-.59-1.2l0,0c.08.14.16.27.23.41s.1.18.14.27.16.3.25.47l.19.38c.28.54.53,1.11.77,1.7A37.78,37.78,0,0,1,20,22.62c.1.32.19.64.28,1,.8,2.94,1.45,6,2.34,8.83q.07.24.15.54c0,.2.09.42.12.65A12.48,12.48,0,0,1,23,34.89c0-.17-.07-.35-.11-.53.05.27.09.53.13.8a.76.76,0,0,0,0,.15c-.05.82-.14-.21-.2-.56.07.79.1.93.15.91a.16.16,0,0,0,.05-.08c0,.1,0,.2,0,.3A7.31,7.31,0,0,1,22.84,38c-.17.63-.38,1.28-.61,1.93Z"/><path id="Tracé_103" data-name="Tracé 103" class="cls-3" d="M29.81,30.7c0-.29-.07-.59-.11-.88l.06.71,0,.72Z"/></g><path id="Tracé_104" data-name="Tracé 104" class="cls-4" d="M15.43,16.44c.54.16.35,0,.56.43.76.65,1,2.18,1.43,3.06,1.9,3.47,2.45,9,3.8,13a8.78,8.78,0,0,1,.05,4.41,16.05,16.05,0,0,1-2.46,5.12c-.53.65-1.66,2.93-2.27,3.52-.24.22-.19,3.15-.19,5.3h-.19c-.36-.23-.93-.22-1.35-.43l-.19-.14c.58-1.35.29-3,.21-4.59-6.14-3-6.72-15.44-3.5-21.17C12.49,22.87,14.88,18.94,15.43,16.44Z"/><g id="Groupe_85" data-name="Groupe 85"><g id="Groupe_84" data-name="Groupe 84"><path id="Tracé_105" data-name="Tracé 105" class="cls-1" d="M15.2,42l.16-2.68a12.17,12.17,0,0,1,0-2.63c-.34-3.06-.51-5.57-.85-8.4-.33-2.57.83-3.51.16-6,.33-.13.32-1.7.66-2.07.34-.12,0-.48.34-.48a43.54,43.54,0,0,0-.22,9.41c.34,4.9,1.61,5.65.55,10.18a8.19,8.19,0,0,1-.22,2.37c-.1.9.33,2.5-.35,3.12C15.08,44.1,15.54,43.2,15.2,42Z"/></g><path id="Tracé_106" data-name="Tracé 106" class="cls-1" d="M15.36,40.74a6.81,6.81,0,0,1-1.78-1.52c-.23-.32-.76-.57-1.06-.94-.84-.18-.59-.37-1.22-.89-.41-.33-.07-.12-.5-.31a2.27,2.27,0,0,0-.73-.21,2.14,2.14,0,0,0,.62.72c.48.43.29.39.85,1-.11.09.32.23.2.3,1.34.76,2.33,2,3.77,2.69.09-.13-.44-.6-.15-.71h0Z"/><path id="Tracé_107" data-name="Tracé 107" class="cls-1" d="M20,36.48c-.62.83-.26.1-.66.45s-.4.58-.68.89-.19.24-.39.48-.44.47-.74.86-.39.41-.57.64a3,3,0,0,1-.55.57c-.6.45-.7,1.13-1,1.46.49-.49.43.15.91-.35-.14.11.8-.94.84-.82,1.67-1.67,2.22-2.9,3.43-4.12,0-.29,0-.25,0-.39Z"/><path id="Tracé_108" data-name="Tracé 108" class="cls-1" d="M16.12,36.11c.5-.81-.17.42.07.06s.51-.43.75-.66.33-.52.5-.76c.28-.4.76-.73,1-1.16s.18-.62.36-.9.14-.06.3-.3c.49-.75.23-.89.61-1.36-.59.7-.32,0-.89.69.13-.12-1,1.41-1.11,1.27-.42.51-.76.94-1.05,1.32s-.4.53-.57.77c-.47.64-.08.4-.45,1,.07.24-.07.14,0,.26Z"/><path id="Tracé_109" data-name="Tracé 109" class="cls-1" d="M10.1,31.48c.3.29.44-.07.8.18s1,.86,1.4,1.1.3.27.65.56c1.14,1.08,1.6,1.47,2.6,2.44-.27-.13-.19.71-.33.48-.35-.08-.59-.35-1-.44-.26-.34-.92-1-1.23-1.35-.49-.51-.68-.42-1.21-.9-.7-.65-1.09-1.39-1.72-2.06Z"/><path id="Tracé_110" data-name="Tracé 110" class="cls-1" d="M18.82,26.08c-.28.32-.44,0-.78.33S16.61,27.75,16.26,28s-.72,1.2-1,1.53c-.61.63.1,1,.23.84.27-.32.85-1.12,1.35-1.76.31-.41.95-.9,1.24-1.28S18.65,26.31,18.82,26.08Z"/><path id="Tracé_111" data-name="Tracé 111" class="cls-1" d="M11.78,27.22c.68.72.36.13.68.45a10.84,10.84,0,0,1,1,.62,8.71,8.71,0,0,1,1.15,1.42s.54,1.16.19,1a28.64,28.64,0,0,1-2.6-2.33,8.8,8.8,0,0,1-.95-1c0-.2-.07-.34,0-.43Z"/></g></g></g></g></svg>
